<svg xmlns="http://www.w3.org/2000/svg" width="578.188" height="721.375" viewBox="0 0 578.188 721.375">
  <defs>
    <style>
      .cls-1 {
        fill: #ff1c1c;
        fill-rule: evenodd;
      }
    </style>
  </defs>
  <path id="Shape_3_copy" data-name="Shape 3 copy" class="cls-1" d="M795.123,568.957c-1.894,5.644,2.161,8.391,2.969,10.895,1.949,5.877-1.022,11.169-4.092,16.148-2.631,4.268-7.807,6.866-18,8-2.906.323-5.5,0.761-8.4,1.212-4.856.757-10.185,1.828-12.6,2.788-4.754,1.89-7.148,4.377-12,6a30.06,30.06,0,0,1-16,1,28.445,28.445,0,0,1-12-6c-1.433-1.173-7.814-9.919-12-10-4.777-.092-7.475,6.254-13,8-3.6,1.137-7.612.752-12-1a57.49,57.49,0,0,0-10-7c-8.819-4.858-16.226-6.079-22-6-8.5.117-14.747,3.088-17,5-2.621,2.225-5.341,5.811-7,12-1.246,4.649.282,11.26-3,16-2.362,3.411-5.143,3.593-8,7a20.474,20.474,0,0,0-4,7c-1.33,4.713.923,7.971-1,12-2.179,4.565-6.867,4.213-9,9-1.518,3.406-.641,7.182,0,9,2.6,7.368,10.77,8.764,19,14,10.941,6.961,9.393,14.825,19.754,22.623,6.88,5.178,23.206,9.286,30.686,20.8,2.941,4.525,4.629,13.423,5.939,18.818,1.775,7.3.865,13.363,1.98,20.8,0.718,4.79,1.739,10.051,2.641,11.963,6.054,12.828,19.859,14.4,28,26,5.281,7.526,6.823,14.255,6,20-0.372,2.6-3.013,8.771-7.338,14.468A18.358,18.358,0,0,1,699,844a19.762,19.762,0,0,1-11,3c-4.489.055-10-2.9-14-1-4.291,2.033-4.322,7.153-8,10-4.088,3.164-10.282,3.255-18,1-3.892-2.862-7.934-4.4-12-4-6.075.592-10.228,6.014-15,8-3.895,1.621-11.6,3.655-18.9.125-7.356-3.558-10.838-11.329-11.879-17.827-0.528-3.3,2.306-11.1,2.97-13.866,1.712-7.134-.959-14.884-1.98-19.808a30.568,30.568,0,0,0-5.32-3.17A37.867,37.867,0,0,0,578,804a47.754,47.754,0,0,1-12-4c-4.676-2.618-6.2-5.614-11-8s-7.5-.768-12.293-3.174C531.3,783.1,533.535,767.379,522,759a35.043,35.043,0,0,0-12-5c-5.419-1.264-9.445-.69-15-1a55.916,55.916,0,0,1-15-3c-4.122-1.415-8.063-3.738-13-5a49.562,49.562,0,0,0-18-1,48.272,48.272,0,0,0-15,4,36.113,36.113,0,0,0-13,10,35.6,35.6,0,0,0-7,16c-1.407,7.861,1.541,12.431-1,20-2.353,7.011-7.1,9.562-10,15-3.785,7.1-3.868,13.615-3.824,24.394,0.036,8.9-.65,16.1-1.98,20.8C393.709,866.531,379,873.5,368,873s-23.278-7.455-32.175-13.856c-2.342-1.685-10.156-7.792-11.879-9.9-3.418-4.19-4.449-10.805-8.909-13.865-7.649-5.25-16.085-3.981-22.767-6.933C277.31,821.832,270.184,803.158,269,790c-0.918-10.2.28-22.44,7-31,3.618-4.608,7.578-6.951,8-12,0.584-6.988-6.286-11.052-12.517-19.579-5.144-7.04-7.719-15.911-9.9-24.76-2.8-11.372,2.569-21.812,4.949-28.721C274.8,649.927,279.7,646.077,296,634c6.932-7.082,9.907-11.12,34.875-23.446C337.129,607.467,341,608.249,337,594c-0.868-1.282-2.395-8.491-3-13-1.141-5.316-7.852-2.762-14.013-1.148-7.8,1.492-15.275,3.115-22.767,4.952-12.135,2.975-20.174,5.3-31.22,3.2-9.951-1.892-19.03-6.773-27-14a25.7,25.7,0,0,1-3-14,25.409,25.409,0,0,1,2.818-9.86A61.5,61.5,0,0,1,246,540c4.761-5.431,9.714-9.186,9-14a8.747,8.747,0,0,0-3-5c-5.977-5.764-12.67-6.92-18-11a31.177,31.177,0,0,1-8.467-10.154A24.924,24.924,0,0,1,223,491c-1.517-12.58,5.906-24.9,13-33a63.373,63.373,0,0,1,14-12c4.626-2.885,7.678-3.972,11-8,5.193-6.3,4.545-12.3,8-18,1.7-2.8,9.222-9.045,18-14,5.911-3.337,10.107-3.868,14.179-8.381C305.32,393.031,307.445,387,308,380a36.364,36.364,0,0,1,6-16c1.45-2.031,3.076-3.878,4-7,1.294-4.372-.206-6.6,1-11,0.808-2.943,2.321-4.025,3-7,0.9-3.943-.212-7.213-1.579-12.524-1.073-4.167-1.69-7.656-1.421-10.476a20.076,20.076,0,0,1,3.956-10.488c5-6.277,13.326-7.018,20.044-7.512,9.061-.666,18.2-1.2,26.48-1.4,5.34-8.915,10.587-17.773,15.838-26.741C389.585,262.57,393.791,255.321,398,248a115.884,115.884,0,0,1,9.578-14.432c2.038-2.622,4.165-5.128,6.422-7.568,0.99-2.641,5.963-5.993,6.953-8.634C429.2,209.444,435.752,200.922,444,193c7.733-8.136,15.346-18.528,24.467-25.154A100.718,100.718,0,0,1,492,155a63,63,0,0,1,14-3c8.24-.785,13.009-0.291,14,2,1.025,2.369-2.786,5.776-7.885,12.14-1.782,2.225-3.466,4.483-5.115,6.86-5.979,8.181-11.855,16.313-17.746,24.558C476.548,215.342,464.291,232.925,452,251c-2.639,2.311-5.641,8.623-8.28,10.934C432.782,276.846,427.614,290.143,432,300c4.985,11.2,20.3,11.118,25,24,2.151,5.893-.826,12.014,3,17,5.614,7.315,19.305,5.55,30,4,13.314-1.93,25.826-3.719,34.889-2.844,17.56,1.7,27.256,10.244,40.585,15.847,13.772,5.789,24.574,3.481,29.7,10.894,9.483,13.726-4.058,36.717,3.83,52.1,1.751,3.414,3.762,5.242,6,6,4.956,1.679,10.83-2.114,13.744-4.464,1.8-1.454,4.04-3.983,6.779-5.887a18.955,18.955,0,0,1,4.292-2.194l20.787-1.98c8.806-2.613,17.131-7.95,26.727-9.9,7.591-1.547,16.364,3.508,21.777,4.952l18.807,0.99c8.9,3.09,28.914,25.788,32.666,34.664,1.472,3.483,3.23,9.672,1.979,14.856-1.814,7.522-8.856,18.242-6.929,27.731,1.067,5.251,4.738,10.253,5.94,14.856,1.517,5.814-1.577,10.637-1.98,15.846A27.339,27.339,0,0,0,757,520c8.667,2.6,16.392-1.979,23,2,5.616,3.382,4.333,9.684,9.183,15.265,1.794,2.063,8.962,5.967,10.889,11.885C803.488,559.641,796.549,564.707,795.123,568.957ZM597,621c1.766-4.1-.346-9.629,3.119-13.417,1.49-1.629,3.065-2.092,4.838-3.964a9,9,0,0,0,2.091-4.95c-6.2-3.812-18.265-3.123-28.706-2.971-4.765-2.875-11.809-1.67-15.838-4.952-0.376-2.494-1.5-4.813-3.521-5.784-1.769-.848-3.9-0.507-6.983,1.038-5.372,2.7-14.211,8.563-17,17-2.1,6.354.473,11.3-3,18-2.172,4.192-6.252,6.918-8,9-2.344,2.792-6.12,9.9-8.088,18.366C514.349,655.09,513.87,663.329,517,668a8.726,8.726,0,0,0,3.781,3.346,7.836,7.836,0,0,0,3.118.613A7.3,7.3,0,0,0,533.8,668c3.065-7.1,7.372-12.364,13.2-15,5.358-2.42,8.719-1,14-3,8.922-3.38,10.721-11.651,17.342-16.667C583.071,629.75,594.068,627.815,597,621ZM492,488a35.234,35.234,0,0,0,3-4c2.461-3.828,3.016-7.013,6-9,1.633-1.088,4-1.348,6.011-3.289a10.258,10.258,0,0,0,2.04-2.784c2.842-5.625.234-12.824,0.99-17.827,0.616-4.075,4.237-8.258,2.959-12.1-1.763-5.3-9.794-7.907-20-9-7.64-1.752-15.444-1.374-22,2a16.871,16.871,0,0,0-7.28,6.663c-1.786,3.9-1.229,8.457.787,12.437A123.713,123.713,0,0,1,475,465a87.591,87.591,0,0,1,6,12s4.042,10.107-3.625,7.774c-8.347-2.541-13.285-17-19.994-21.856A8.663,8.663,0,0,0,452,461c-2.395.076-4.612,1.412-7,4a45.1,45.1,0,0,0-11.414,29.473c0,10.634,1.821,16.15,5.414,17.527,2.015,0.773,4.8.318,8.8-2.371A21.72,21.72,0,0,0,455,501c1.706-3.372,2.21-5.906,5-8a8.884,8.884,0,0,1,6-2,8.309,8.309,0,0,1,4.426,1.7A10.112,10.112,0,0,1,474,497a11.966,11.966,0,0,1,0,8c-1.278,4.279-3.67,6.136-6,10-3.315,5.5-3.606,10.214-3,12a10.155,10.155,0,0,0,4,5,17.74,17.74,0,0,0,8,3,83.815,83.815,0,0,0,12,1c6.486-.152,11.838-1.558,14-3a18.414,18.414,0,0,0,5-5,9.383,9.383,0,0,0,0-7c-1.4-3-4.6-3.719-6.583-6.3A11.517,11.517,0,0,1,499,507c0.5-6.289,6.958-10.015,10.6-11.268A12.282,12.282,0,0,1,515,495c4.523,1.114,6.426,7.5,10.457,10.472,1.6,1.179,6.185,4.138,9.543,2.528,3.033-1.454,3.593-5.914,4-9.407,0.4-3.446,1.136-9.185,1.725-13.819-2.381-2.637-2.193-5.42-5.939-6.933-4.7-2.151-8.886-2.805-11.879-.991-2,1.216-2.083,2.74-3.909,4.15-3.732,2.881-7.118.7-11,3-3.2,1.9-3.94,4.788-7.428,7.359A7.526,7.526,0,0,1,496,493a4.431,4.431,0,0,1-3-1A4.244,4.244,0,0,1,492,488Zm-68,40c-4.251,1.076-6.848,1.532-8.112,3.549-2.075,3.311-.1,8.063,2.112,12.451,3.619,7.184,7.194,14.529,9.882,17.034,7.769,7.241,13.772,4.539,21.118,11.966,2.358,2.384,4.526,7.062,9,10,3.183,2.091,6.832,2.461,11.093,3.982,4.371,1.561,7.268,2.51,9.907,1.018,1.523-.861,3.2-2.913,4-7,1.031-5.272-.848-8.229-2-14-1.169-5.857-.072-9.646-3-14a22.474,22.474,0,0,0-9-7c-4.913-2.252-8.078-1.1-12.412-3.783-5.38-3.329-5.261-7.863-10.654-12.036A20.539,20.539,0,0,0,437,526C433.01,525.275,429.407,526.631,424,528Zm71,34a23.663,23.663,0,0,0,6,13c3.322,3.88,7.163,5.567,8.555,5.7A8.544,8.544,0,0,0,514,580c4.468-2.108,5.125-9.357,8-13,2.446-3.1,6-4.506,9-7,5.7-4.743,8.228-9.14,8-11-0.672-5.475-9.2-8.317-11.361-8.941a21.416,21.416,0,0,0-5.72-.813c-4.881-.043-9.621,4.974-13.929,7.047-5.57,2.682-9.481,2.781-11.807,6.818A16.794,16.794,0,0,0,495,562ZM664.46,811.605c1.541,2.639,5.61,3.553,8.54,2.395,0.937-.37,3.359-2.982,5-7,1.334-3.267,1.5-5.8,1-7a6.584,6.584,0,0,0-6-4c-1.525.06-4.494,2.073-7,7C663.837,807.253,663.834,810.532,664.46,811.605ZM606,829c1.134,4.509,3.271,6.885,5,8a11.545,11.545,0,0,0,12,0,11.808,11.808,0,0,0,5-14,19.6,19.6,0,0,0-11-10,8.2,8.2,0,0,0-7,0c-1.058.581-3.122,3.435-4,8A19.8,19.8,0,0,0,606,829ZM394,790a6.91,6.91,0,0,0,4.051-1.209A7.489,7.489,0,0,0,401,782a37.566,37.566,0,0,1,2-18c1.094-2.784,2.981-6.841,3.105-11.819A18.279,18.279,0,0,0,405,745c-3.457-7.01-13.308-5.23-28-9-9.584-2.459-16.237-5.781-22-2a18.662,18.662,0,0,0-5.38,7.17A20.021,20.021,0,0,0,348,754a21.619,21.619,0,0,0,2.686,6.185,24.321,24.321,0,0,0,3.946,4.871c6.6,2.641,13.449,4.533,19.8,7.923C383.461,779.5,381,788.079,394,790Zm-47.287-15.04C332.755,766.858,310,758,310,758a17.1,17.1,0,0,0-16,0c-2.347,1.307-7.983,5.266-8,12a11.293,11.293,0,0,0,2.855,7.752c4.668,4.829,13.2,2.84,20.145,2.248,12.143-1.036,24.919,2.412,36,8a73.168,73.168,0,0,1,25,21c2.2,5.189,7.732,6.725,10.537,5.048,2.722-1.628,4.008-6.964.821-11.357-1.666-9.666-8.543-17.014-15.837-21.788ZM286,809a28.082,28.082,0,0,0,11,10c5.5,2.692,9.741,2.063,15,4a36.224,36.224,0,0,1,12.936,8.413c4.449,4.476,6.048,9.766,9.064,13.587a44.927,44.927,0,0,0,22,15c9.845,2.983,17.2,1.454,20.433-.343A19.664,19.664,0,0,0,384,851c2-4.25.125-9.708-8-18-19.328-19.727-34.8-44.046-68.882-44.174-2.548,1.541-9.353.395-11.878,1.981a13.278,13.278,0,0,0-7.922,5.2A13.657,13.657,0,0,0,286,809Zm49.825-185.571a85.05,85.05,0,0,0-10.914,4.712c-3.374,1.731-5.914,3.212-5.914,3.212s-5.831,3.848-9,7.647c-3.333,4-8.333,11-13,14s-13.054,9.635-17,19a74.221,74.221,0,0,0-5.017,23.749c-0.357,9.169,1.655,17.772,3.017,20.251,3.6,6.559,8.457,8.03,13,14,2.315,3.043,3.586,6.773,7,10,4.5,4.251,10.932,7.142,19,8,8.939,0.951,15.051-1.083,17-3,4.616-4.541,2.387-11.155,6.206-16.585,3.447-4.9,10.006-7.625,18.794-8.415,12.466-1.12,20.491,6.235,31,8,6.261,1.052,10.258.342,16,3,3.448,1.6,7.156,4.738,12.072,6.366A32.6,32.6,0,0,0,428,739c7.7,0.078,10.592-3.507,18-5,4.94-1,13.948-.208,22,1a66.384,66.384,0,0,1,15,4c4.685,1.893,7.692,3.7,13,4,5.332,0.3,8.214-1.609,13.368-1.529,3.455,0.053,11,2.158,18.491,7.739,3.457,2.576,8.665,8.088,13.141,14.79,2.1,3.139,4.928,9.235,9,12,4.542,3.084,12.407,4.773,16,7,4.427,2.745,6.526,5.523,11.3,7.783A38.627,38.627,0,0,0,588,794c9.185,1.393,13.838-1.464,23-3,5.133-.861,24.848,2.112,34.653-5.145a20.128,20.128,0,0,0,5.168-5.173c2.728-4.667,1.6-9.852,4.73-17.607,1.415-3.5,3.7-4.357,4.95-7.923,2.645-7.543-.486-15.41-2.5-19.152a28.575,28.575,0,0,0-15-13,41.1,41.1,0,0,1-18.134-10.435c-3.867-3.912-6.4-8.517-8.909-11.885-3.977-5.342-10.418-8.865-15.838-12.875-12.21-6.418-7.624-4.145-22.767-4.952-4.043,2.642-9.964,2.262-13.858,4.952-1.688,1.166-1.667,3.3-2.97,4.952-1.477,1.877-5.892,5.806-12.868,7.923-4.161,1.264-9.078.64-13.656,3.32-4.549,2.662-5.082,5.955-9,9-5.047,3.922-8.57,2.628-14,6-3.167,1.967-4.641,3.608-7.86,3.95-5.115.543-8.759-2.814-12.14-4.95-12.1-7.642-22.146,1.334-35.4-4.444-4.126-1.8-13.976-11.243-21.6-24.556-2.838-4.958-5.667-14.9-12.057-21.993-3.857-4.282-11.2-7.584-14.943-15.007-1.728-3.432-2.129-9.425-6.2-14.171-1.53-1.782-5.555-4.835-10.8-6.829-5.46-2.076-10.178-1.717-15-3-8.272-2.2-10.537-6.712-19-8C352.9,619.527,344.257,620.526,335.825,623.429ZM313.058,462.985C307.114,456.086,308,446.513,309,442c1.445-6.494,4.731-9.9,3-14-1.552-3.671-5.665-5.1-7.926-5.467A11.4,11.4,0,0,0,295,425a35.127,35.127,0,0,0-5.7,9.263c-4.846,11.66-4.07,27.729,4.7,35.737,5.113,4.669,10.688,3.619,17,7,6.1,3.266,8.145,7.94,15,10,9.962,2.993,23.3-.489,29.571-9.882,3.487-5.226,5.17-12.821,2.429-18.118a7.434,7.434,0,0,0-3.914-3.919A6.75,6.75,0,0,0,350,455c-5.1,1.285-8.939,5.985-12.945,8.764-4.44,3.08-10.1,4.465-17.068,4.173A18.59,18.59,0,0,1,313.058,462.985Zm30.429-33.605c-1.926-1.978-5.339-1.587-6.487-1.38-3.666.661-6.545,3.643-8.614,7.924A13.212,13.212,0,0,0,327,444c0.594,2.838,1.689,4.317,3,5,2.584,1.347,6.813.112,10-4C345.568,438.6,346.086,432.049,343.487,429.38ZM321,375c-1.674,3.407-4.138,14.04-4,25,0.053,4.2.483,7.715,3,10,3.557,3.229,8.736,1.642,16,1,3.409-.3,10.907-0.187,17,0,6.755,0.207,12.882.58,15-3a7.169,7.169,0,0,0-1-8c-1.958-2.038-5.356-1.7-8-3a9.891,9.891,0,0,1-4.493-4.034A7.474,7.474,0,0,1,354,387c0.907-2.251,2.895-2.349,4-4,2.871-4.29-2.192-10.167,0-15,0.861-1.9,4.284-4.566,10.49-6.036,8.117-1.922,22.465,1.351,28.246-4.029a9.425,9.425,0,0,0,2.44-3.894,2.229,2.229,0,0,0,.549-1c0.283-1.25-.652-2.882-2.725-4.036-3.187-1.012-6.386-1.873-9.648-2.6a112.22,112.22,0,0,0-14.9-2.267c-12.235-1.028-23.282,1.087-26.727,2.971-4.744,2.595-7.87,7.3-12.723,12.892C328.114,365.63,323.727,369.452,321,375ZM425,239c-1.486-1.244-4.545-.407-9,2a25.653,25.653,0,0,0-10,10,29.438,29.438,0,0,0-3.261,8.572c-0.078.38-.318,5.44-1.739,8.428s-3.292,4.18-5,7c-2.421,4-2.975,6.536-2,8,1.308,1.966,5.175,1.713,5.176,1.713A15,15,0,0,0,405,281c3.789-3.971,3.831-10.323,5-13,3.294-7.543,8.921-8,13-16C425.238,247.612,427.348,240.965,425,239Zm15.473,89.72A14.336,14.336,0,0,0,438,323c-6.071-8.323-30.5-10.632-38.647-11.448C383.487,309.963,364.124,309.433,355,310c-13.273.825-18.926,7.177-19.754,11.7-0.695,3.8,1.725,7.976,4.754,10.3,5.471,4.194,12.761,2.2,20,1a99.153,99.153,0,0,1,23-1,85.175,85.175,0,0,1,20.135,4.214C417.1,340.775,425.453,347.013,433,343a15.774,15.774,0,0,0,6.76-7.776A12.833,12.833,0,0,0,440.473,328.72Zm129.95,51.072c-5.38-4.268-11.515-8.613-14.423-9.792-14.02-5.684-28.412-3.042-38-2-7.815.849-22.953,0.148-36.665-1.084-26.1-2.345-46.906,2.714-50.335,6.084a9.3,9.3,0,0,0-2.611,4.611A8.177,8.177,0,0,0,429,382c1.048,2.77,2.641,4.347,3.447,6.8a13.022,13.022,0,0,1-.605,8.817c-2.743,9.264-10.9,9.861-17.818,14.856q-9.9,11.388-19.8,22.779a39.27,39.27,0,0,1-8.356,3.03c-3.16.743-6.3,1.077-8.871,3.716a11.959,11.959,0,0,0-3,6c-1.695,7.67,3.184,13.122,3,20-0.06,2.228-2,8.173-4.982,13.738A48.353,48.353,0,0,1,368,488a35.939,35.939,0,0,1-7.441,7.4,39.891,39.891,0,0,1-21.765,7.2c-19.332.865-25.827-14.8-42.794-18.6-4.023-.9-11.268-2.024-16-8a25.641,25.641,0,0,1-4-10c-0.893-4.84,1.127-14.569-2-17-1.813-1.41-4.988-1.234-10,1-4.366,1.947-6.631,4.525-10,8-2.437,2.514-4.731,4.333-7,7a47.439,47.439,0,0,0-7.142,10.83c-3.179,7.009-3.391,13.7-2.858,16.17a19.277,19.277,0,0,0,3,7c3.634,5.188,9.356,7.163,18,11,2.986,1.326,6.625,3.055,9,7a16.885,16.885,0,0,1,2,11c-1.716,11.607-14.277,14.929-17,27-1.092,4.839-.446,8.4,1,11,1.64,2.945,4.643,5.32,10,7,13.127,4.116,28.016-.186,32.24-1.071,7.807-1.636,13.983-4.157,21.76-5.929,4.389-1,14.361-3,17-3,7.978-1.863,9.416-1.941,16.673-4.937,6.735-2.78,10.114-6.17,15.965-8.254A64.446,64.446,0,0,1,376,548c2.358-.316,4.756-0.468,6,1,1.3,1.537,1.064,4.545-1,8a82.686,82.686,0,0,1-10.53,10.967c-5.674,4.893-9.962,8.278-14.848,14.856C353.3,585.945,350.649,589.5,351,594c7.8,21.511,32.624,18.328,53.125,27.449a21.507,21.507,0,0,1,7.539,5.179c5.83,6.488,4.606,12.2,9.336,18.372,4.408,5.749,8.621,5.229,13,11s3.358,10.17,7,16c5.977,9.567,18.692,13.733,31,15,4.456,0.459,9.065-1.167,11-5,1.761-10.521-9.593-13.453-17-23-3.756-4.841-3-13.019-3-15-5.242-3.882-11.516-8.411-10.371-15.619C454.857,614.348,437.288,614.8,437,595c1.37-5.815-.077-8.753-5-12-10.99-7.247-17.895-23.082-25.895-33.85-4.355-5.863-17.348-10.924-19.8-16.837-0.868-3.2-.784-5.963.38-8.222,1.092-2.119,4.382-3.873,4.312-6.091-0.061-1.94-2.584-3.188-3.512-5.132A9.137,9.137,0,0,1,387,507a8.6,8.6,0,0,1,3.755-4.277A9.026,9.026,0,0,1,397,502c3.727,0.712,5.447,3.078,8.281,4.124,1.593,0.588,6.3,2,9.719-.124,4.687-2.916,3.86-10.447,5-19a81.271,81.271,0,0,1,4.913-17.082c1.7-4.385,3.772-9.151,5.087-10.918,2.068-2.779,3.3-5.7,5-8a4.429,4.429,0,0,0,1-3,3.586,3.586,0,0,0-1.693-2.695,3.632,3.632,0,0,0-3.455-.147,34.54,34.54,0,0,0-7.919,5.942c-5.659,5.722-7.313,11.524-11.933,11.9a5.922,5.922,0,0,1-5-2c-1.122-1.425-1.477-3.874,0-8,1.378-3.852,3.682-4.525,4.988-8.4,0.777-2.307.551-3.77,2.012-5.6a9.118,9.118,0,0,1,5-3,29.54,29.54,0,0,0,7.9-3.717c3.382-2.276,5.191-6.333,9.1-7.283,4.926-1.2,7.3,2.973,12,2,5.887-1.217,6.564-8.435,12.558-10.564,4.924-1.748,8.548,1.093,15.442,2.564,6.031,1.287,10.438-.2,16,0,12.543,0.443,19.963,6.125,32,4,7.879-1.391,13.539-7.514,22.676-6.564C553.693,417.27,559.884,425.11,566,423c5.541-1.912,9.365-10.959,8-18-0.387-2-2.416-4.83-2-8,0.512-3.895,3.939-5.411,4-9C576.056,384.732,573.337,382.1,570.423,379.792Zm158.379,72.3c-1.007-9.337-4.222-16.88-9.8-22.091-11.245-10.5-26.141-2.226-50-4-6.539-.486-21.911-2.083-26.317,5.292-1.256,2.1-1.419,4.586-3.683,5.708-2.609,1.293-4.962-.818-8,0-3.109.837-3.047,3.081-6,4-4.252,1.323-7.008-2.239-11-1-2.6.808-4.562,3.292-6,7-2.121,5.859-6.887,6.686-10,7-4.312.434-6.871-1.395-11-1-4.319.413-7.451,4.689-10.494,6.173A21.409,21.409,0,0,1,565,461c-6.684-1.847-11.344-4.408-12-8-0.7-3.854,4.17-7.033,3-10-1.3-3.3-8.942-3.647-14-3-1.8.231-3.2,0.735-5,1a18.1,18.1,0,0,0-6,2,16.744,16.744,0,0,0-5,4c-2.909,3.521-4.022,6.58-3,9,1.2,2.847,5.009,4.18,8,4,3.788-.229,4.839-2.827,8-3,3.363-.184,7.916,3.392,13,12a61.594,61.594,0,0,1,7.534,20.726c2.139,3.074,5.181,2.23,8.909,3.961,5.055,2.347,12.244,10.2,13.858,15.847C585.244,519.826,584.333,530,582,534s-10.333,11.333-15,15-10.932,8.471-11,16c0.32,0.406,3.6,7.316,9.474,5.938C574.185,568.9,575.761,558.378,585,549c7.173-7.28,16.235-11.555,23.038-15.7,7-4.264,16.384-5.05,22.767-9.9,6.533-4.968,9.746-15.264,14.848-21.789,3.447-4.409,26.1-20.5,31.676-22.779,13.144-5.367,24.626,10.182,35.635,2.971C723.96,478.472,729.21,467.534,728.8,452.091ZM753,539c-1.088-.933-2.986-0.987-5,0a10.779,10.779,0,0,0-6,11c1.169,1.956,2.756,3.551,4.618,3.686,3.933,0.284,7.049-6.078,7.382-10.686C754.158,540.814,753.561,539.481,753,539Zm-3.411,32.929c-8.182-6.882-18.2,8.767-28.706.99-3.826-4.267-7.471-8.7-11.045-13.423S702.876,549.724,704,544c0.434-2.21,1.559-5.3,4.014-6.735,4.469-2.606,9.295,1.956,13.986-.265,4.025-1.906,4.552-8.5,7-12,2.351-3.357,9.363-7.264,9-11-0.346-3.555-5.44-5.871-7.041-6.5a14.994,14.994,0,0,0-7.107-.934c-3.287,2.523-7.894,1.793-11.878,3.962-2.113,1.15-5.953,6.513-11.159,8.236A8.8,8.8,0,0,1,695,519c-2.778-1.232-3.846-5.248-5.568-7.1-2.241-2.411-6.3-4.921-9.432-3.9-3.583,1.169-3.266,6.109-7,8-3.782,1.916-6.972-1.1-11,1a14.723,14.723,0,0,0-4.26,4.97,18.665,18.665,0,0,0-2.189,6.381A14.83,14.83,0,0,1,654,538c-3.618,6.17-11.072,5.857-15.388,12.013-2.97,4.238-3.64,6.666-2.849,8.08,1.243,2.219,5.288,2.076,11.155,2.227,8.227,0.213,12.8,1.043,14.082,3.68,1.548,3.2-2.6,6.676-1,10,1.668,3.471,8.241,2.839,12,6,2.68,2.254,4.3,5.642,5,10,3.929,1.828,7.316,2.272,10,1,2.626-1.245,3.365-3.785,6.8-5.187a14.482,14.482,0,0,1,3.208-.738c5.371-.684,10.946-0.632,12.987.719,11.591,3.886,10.652,15.729,26.727,15.847,6.59-4.321,14.979-2.752,17.817-10.895,1.633-1.773,1.728-2.488,1.98-5.942C752.973,581.776,753.576,574.292,749.589,571.929Z" transform="translate(-222.812 -151.656)"/>
</svg>
