<svg xmlns="http://www.w3.org/2000/svg" width="258" height="255" viewBox="0 0 258 255">
  <defs>
    <style>
      .cls-1 {
        fill: none;
        stroke: #fcfcfc;
        stroke-width: 3px;
        fill-rule: evenodd;
      }
    </style>
  </defs>
  <path class="cls-1" d="M640,513.49s-70.647,0-106.967,8.61c19.525,31.469,69.477,80.839,69.477,80.839s-49.916-49.327-81.759-68.64C512,570.2,512,640,512,640s0-69.76-8.746-105.665c-31.9,19.34-81.92,68.779-81.92,68.779S471.4,553.623,490.948,522.1C454.625,513.494,384,513.49,384,513.49s70.647,0,106.967-8.611c-19.525-31.468-69.477-80.838-69.477-80.838s49.921,49.331,81.764,68.642C512,456.78,512,387,512,387s0,69.76,8.745,105.665c31.9-19.34,81.921-68.779,81.921-68.779s-50.049,49.472-69.6,81C569.389,513.486,640,513.49,640,513.49Z" transform="translate(-383 -386)"/>
</svg>
